<mxfile host="Electron" modified="2023-11-28T11:32:18.987Z" agent="Mozilla/5.0 (Windows NT 10.0; Win64; x64) AppleWebKit/537.36 (KHTML, like Gecko) draw.io/21.6.8 Chrome/114.0.5735.289 Electron/25.5.0 Safari/537.36" etag="nWCJ8P14oDb7wTV6CTw5" version="21.6.8" type="device">
  <diagram name="Seite-1" id="jJBamXdkVM4G_uvEnDGY">
    <mxGraphModel dx="1036" dy="614" grid="1" gridSize="10" guides="1" tooltips="1" connect="1" arrows="1" fold="1" page="1" pageScale="1" pageWidth="827" pageHeight="1169" math="0" shadow="0">
      <root>
        <mxCell id="0" />
        <mxCell id="1" parent="0" />
        <mxCell id="DGohpC6ynVOw9Je8wZN--3" value="" style="shape=folder;fontStyle=1;spacingTop=10;tabWidth=40;tabHeight=14;tabPosition=left;html=1;whiteSpace=wrap;" parent="1" vertex="1">
          <mxGeometry x="420" y="330" width="290" height="180" as="geometry" />
        </mxCell>
        <mxCell id="DGohpC6ynVOw9Je8wZN--1" value="DB" style="shape=datastore;whiteSpace=wrap;html=1;" parent="1" vertex="1">
          <mxGeometry x="625" y="400" width="60" height="60" as="geometry" />
        </mxCell>
        <mxCell id="DGohpC6ynVOw9Je8wZN--2" value="Application" style="shape=folder;fontStyle=1;spacingTop=10;tabWidth=40;tabHeight=14;tabPosition=left;html=1;whiteSpace=wrap;" parent="1" vertex="1">
          <mxGeometry x="460" y="390" width="90" height="70" as="geometry" />
        </mxCell>
        <mxCell id="DGohpC6ynVOw9Je8wZN--4" value="Server" style="text;html=1;align=center;verticalAlign=middle;resizable=0;points=[];autosize=1;strokeColor=none;fillColor=none;" parent="1" vertex="1">
          <mxGeometry x="420" y="340" width="60" height="30" as="geometry" />
        </mxCell>
        <mxCell id="DGohpC6ynVOw9Je8wZN--5" value="Client-Computer" style="whiteSpace=wrap;html=1;aspect=fixed;" parent="1" vertex="1">
          <mxGeometry x="110" y="170" width="80" height="80" as="geometry" />
        </mxCell>
        <mxCell id="DGohpC6ynVOw9Je8wZN--6" value="Internet" style="ellipse;shape=cloud;whiteSpace=wrap;html=1;" parent="1" vertex="1">
          <mxGeometry x="310" y="170" width="120" height="80" as="geometry" />
        </mxCell>
        <mxCell id="DGohpC6ynVOw9Je8wZN--7" value="" style="endArrow=block;dashed=1;endFill=0;endSize=12;html=1;rounded=0;" parent="1" edge="1">
          <mxGeometry width="160" relative="1" as="geometry">
            <mxPoint x="200" y="209.5" as="sourcePoint" />
            <mxPoint x="310" y="209.5" as="targetPoint" />
          </mxGeometry>
        </mxCell>
        <mxCell id="DGohpC6ynVOw9Je8wZN--8" value="" style="endArrow=block;dashed=1;endFill=0;endSize=12;html=1;rounded=0;entryX=0;entryY=0;entryDx=20;entryDy=0;entryPerimeter=0;" parent="1" source="DGohpC6ynVOw9Je8wZN--6" target="DGohpC6ynVOw9Je8wZN--3" edge="1">
          <mxGeometry width="160" relative="1" as="geometry">
            <mxPoint x="490" y="250" as="sourcePoint" />
            <mxPoint x="600" y="250" as="targetPoint" />
          </mxGeometry>
        </mxCell>
        <mxCell id="DGohpC6ynVOw9Je8wZN--9" value="OrangeHRM" style="html=1;whiteSpace=wrap;" parent="1" vertex="1">
          <mxGeometry x="500" y="110" width="110" height="50" as="geometry" />
        </mxCell>
        <mxCell id="DGohpC6ynVOw9Je8wZN--10" value="OpenCRX" style="html=1;whiteSpace=wrap;" parent="1" vertex="1">
          <mxGeometry x="575" y="210" width="110" height="50" as="geometry" />
        </mxCell>
        <mxCell id="DGohpC6ynVOw9Je8wZN--11" value="" style="endArrow=block;dashed=1;endFill=0;endSize=12;html=1;rounded=0;entryX=0;entryY=0.5;entryDx=0;entryDy=0;exitX=0.88;exitY=0.25;exitDx=0;exitDy=0;exitPerimeter=0;" parent="1" source="DGohpC6ynVOw9Je8wZN--6" target="DGohpC6ynVOw9Je8wZN--9" edge="1">
          <mxGeometry width="160" relative="1" as="geometry">
            <mxPoint x="210" y="219.5" as="sourcePoint" />
            <mxPoint x="320" y="219.5" as="targetPoint" />
          </mxGeometry>
        </mxCell>
        <mxCell id="DGohpC6ynVOw9Je8wZN--12" value="" style="endArrow=block;dashed=1;endFill=0;endSize=12;html=1;rounded=0;entryX=0;entryY=0.5;entryDx=0;entryDy=0;exitX=0.96;exitY=0.7;exitDx=0;exitDy=0;exitPerimeter=0;" parent="1" source="DGohpC6ynVOw9Je8wZN--6" target="DGohpC6ynVOw9Je8wZN--10" edge="1">
          <mxGeometry width="160" relative="1" as="geometry">
            <mxPoint x="426" y="200" as="sourcePoint" />
            <mxPoint x="510" y="145" as="targetPoint" />
          </mxGeometry>
        </mxCell>
        <mxCell id="DGohpC6ynVOw9Je8wZN--13" value="" style="shape=umlActor;verticalLabelPosition=bottom;verticalAlign=top;html=1;" parent="1" vertex="1">
          <mxGeometry x="70" y="180" width="30" height="60" as="geometry" />
        </mxCell>
        <mxCell id="DGohpC6ynVOw9Je8wZN--14" value="" style="endArrow=block;dashed=1;endFill=0;endSize=12;html=1;rounded=0;entryX=0;entryY=0.5;entryDx=0;entryDy=0;exitX=0;exitY=0;exitDx=90;exitDy=42;exitPerimeter=0;" parent="1" source="DGohpC6ynVOw9Je8wZN--2" target="DGohpC6ynVOw9Je8wZN--1" edge="1">
          <mxGeometry width="160" relative="1" as="geometry">
            <mxPoint x="402" y="257" as="sourcePoint" />
            <mxPoint x="450" y="340" as="targetPoint" />
          </mxGeometry>
        </mxCell>
      </root>
    </mxGraphModel>
  </diagram>
</mxfile>
